<svg width="125" height="125" viewBox="0 0 125 125" fill="none" xmlns="http://www.w3.org/2000/svg">
<circle cx="62.5" cy="62.5" r="62.5" fill="#B6C1DC"/>
<path fill-rule="evenodd" clip-rule="evenodd" d="M95.4296 76.9192C85.4871 80.88 74.13 82.9817 62.49 82.9817C50.85 82.9817 39.4929 80.88 29.5909 76.9192C28.0954 76.3129 26.6404 75.7067 25.2259 75.0196C24.5388 74.6963 23.8517 74.3729 23.1646 73.9688L24.0538 99.1888H100.967L101.815 73.9688C101.128 74.3729 100.441 74.6963 99.7542 75.0196C98.3396 75.7067 96.8846 76.3129 95.4296 76.9192Z" fill="#2A4588"/>
<path fill-rule="evenodd" clip-rule="evenodd" d="M52.0618 35.2492L54.3898 29.8738H70.609L72.937 35.2492H52.0618ZM79.5451 35.2492L74.5981 23.8113H50.4007L45.4537 35.2492H23.1113V64.7008L24.1096 65.2869C33.8177 70.9654 46.0761 74.2715 58.9447 74.7929V80.0349H66.054V74.7929C78.9308 74.2674 91.1892 70.9614 100.885 65.2869L101.887 64.7008V35.2492H79.5451Z" fill="#2A4588"/>
</svg>
