<svg width="33" height="33" viewBox="0 0 33 33" fill="none" xmlns="http://www.w3.org/2000/svg">
<g clip-path="url(#clip0_57_453)">
<path d="M24.2179 17.666L32.8323 26.2804L28.4721 30.6405C27.7122 31.3973 26.8096 31.9955 25.8165 32.4006C24.8235 32.8056 23.7599 33.0094 22.6875 33C12.7215 33 2.41237e-05 20.2785 2.41237e-05 10.3125C-0.00869793 9.23998 0.195345 8.17637 0.600349 7.18321C1.00535 6.19006 1.60327 5.28707 2.35952 4.5265L6.71965 0.16775L15.334 8.78213L9.66215 14.454C11.3483 18.4611 14.5318 21.652 18.535 23.3475L24.2179 17.666ZM30.25 13.75H33C32.996 10.1045 31.5461 6.60946 28.9683 4.0317C26.3906 1.45395 22.8955 0.00400345 19.25 0V2.75C22.1664 2.75328 24.9624 3.91325 27.0246 5.97544C29.0868 8.03763 30.2467 10.8336 30.25 13.75ZM24.75 13.75H27.5C27.4978 11.5626 26.6279 9.46548 25.0812 7.91878C23.5345 6.37208 21.4374 5.50218 19.25 5.5V8.25C20.7087 8.25 22.1077 8.82946 23.1391 9.86091C24.1706 10.8924 24.75 12.2913 24.75 13.75Z" fill="#2A4588"/>
</g>
<defs>
<clipPath id="clip0_57_453">
<rect width="33" height="33" fill="white"/>
</clipPath>
</defs>
</svg>
