<svg width="33" height="33" viewBox="0 0 33 33" fill="none" xmlns="http://www.w3.org/2000/svg">
<g clip-path="url(#clip0_57_465)">
<path d="M18.5348 23.3488C14.5313 21.6531 11.3477 18.4616 9.66196 14.4539L15.3325 8.78201L6.71946 0.167637L2.36071 4.52639C1.6034 5.28625 1.0047 6.18908 0.599404 7.18238C0.194107 8.17567 -0.0097003 9.23963 -0.000168761 10.3124C-0.000168761 20.2784 12.7213 32.9999 22.6873 32.9999C23.7596 33.0091 24.823 32.8055 25.816 32.4007C26.809 31.9959 27.7118 31.398 28.472 30.6418L32.8321 26.2803L24.2177 17.6659L18.5348 23.3488ZM13.9588 3.51851C14.9636 2.43648 16.1762 1.56815 17.5242 0.965439C18.8722 0.362724 20.3278 0.0379965 21.8042 0.0106702C23.2805 -0.0166561 24.7472 0.25398 26.1166 0.806398C27.4859 1.35882 28.7298 2.18167 29.7739 3.22578C30.818 4.26989 31.6409 5.5138 32.1933 6.88317C32.7457 8.25253 33.0164 9.71922 32.989 11.1956C32.9617 12.6719 32.637 14.1276 32.0343 15.4755C31.4316 16.8235 30.5632 18.0361 29.4812 19.0409L27.5383 17.0966C28.3661 16.3475 29.0329 15.4379 29.4983 14.4232C29.9637 13.4084 30.218 12.3097 30.2457 11.1936C30.2734 10.0776 30.074 8.96755 29.6596 7.93094C29.2451 6.89432 28.6243 5.95277 27.8348 5.16346C27.0453 4.37414 26.1036 3.75354 25.0669 3.33934C24.0302 2.92515 22.9201 2.726 21.8041 2.75399C20.688 2.78198 19.5893 3.03653 18.5747 3.50218C17.56 3.96783 16.6506 4.63486 15.9017 5.46276L13.9588 3.51851ZM20.6248 11.6874V6.87489H23.3748V10.6671L25.5212 12.8121L23.6347 14.6973L20.6248 11.6874Z" fill="#2A4588"/>
</g>
<defs>
<clipPath id="clip0_57_465">
<rect width="33" height="33" fill="white"/>
</clipPath>
</defs>
</svg>
