<svg width="33" height="25" viewBox="0 0 33 25" fill="none" xmlns="http://www.w3.org/2000/svg">
<g clip-path="url(#clip0_57_458)">
<path d="M13.5824 12.6509C14.3573 13.2169 15.4064 13.5347 16.5001 13.5347C17.5938 13.5347 18.643 13.2169 19.4179 12.6509L32.699 2.91038C32.3933 2.34973 31.8657 1.869 31.1842 1.53009C30.5027 1.19117 29.6986 1.00957 28.8751 1.00867H4.12514C3.30174 1.00957 2.49754 1.19117 1.81607 1.53009C1.13459 1.869 0.607027 2.34973 0.30127 2.91038L13.5824 12.6509Z" fill="#2A4588"/>
<path d="M21.362 14.0766C20.0714 15.0207 18.3229 15.5509 16.5 15.5509C14.6771 15.5509 12.9286 15.0207 11.638 14.0766L0 5.54614V23.192H33V5.54614L21.362 14.0766Z" fill="#2A4588"/>
</g>
<defs>
<clipPath id="clip0_57_458">
<rect width="33" height="24.2" fill="white"/>
</clipPath>
</defs>
</svg>
