<svg width="33" height="33" viewBox="0 0 33 33" fill="none" xmlns="http://www.w3.org/2000/svg">
<g clip-path="url(#clip0_57_436)">
<path d="M19.2503 9.62522C19.2503 10.1691 19.089 10.7008 18.7869 11.153C18.4847 11.6053 18.0552 11.9577 17.5527 12.1659C17.0502 12.374 16.4973 12.4285 15.9638 12.3224C15.4304 12.2163 14.9404 11.9544 14.5558 11.5698C14.1712 11.1852 13.9093 10.6952 13.8032 10.1617C13.6971 9.62827 13.7515 9.07534 13.9597 8.57284C14.1678 8.07034 14.5203 7.64085 14.9725 7.33868C15.4247 7.03651 15.9564 6.87522 16.5003 6.87522C17.2297 6.87522 17.9291 7.16495 18.4449 7.68068C18.9606 8.1964 19.2503 8.89587 19.2503 9.62522ZM23.3176 16.7532L19.1128 20.9208C18.7717 21.2648 18.3658 21.5378 17.9186 21.7242C17.4713 21.9105 16.9917 22.0064 16.5072 22.0064C16.0227 22.0064 15.5431 21.9105 15.0958 21.7242C14.6486 21.5378 14.2427 21.2648 13.9016 20.9208L9.69958 16.7752C7.89525 14.9151 6.88478 12.4263 6.8817 9.83481C6.87862 7.24333 7.88317 4.75216 9.68308 2.88772C10.5677 1.97374 11.6271 1.24698 12.7982 0.750643C13.9694 0.254307 15.2284 -0.00146484 16.5003 -0.00146484C17.7723 -0.00146484 19.0313 0.254307 20.2024 0.750643C21.3736 1.24698 22.433 1.97374 23.3176 2.88772C25.1148 4.74814 26.1193 7.23377 26.1193 9.82047C26.1193 12.4072 25.1148 14.8928 23.3176 16.7532ZM22.0003 9.62522C22.0003 8.53742 21.6778 7.47405 21.0734 6.56958C20.4691 5.66511 19.6101 4.96017 18.6051 4.54388C17.6001 4.1276 16.4942 4.01868 15.4273 4.2309C14.3604 4.44312 13.3804 4.96694 12.6112 5.73613C11.8421 6.50532 11.3182 7.48533 11.106 8.55222C10.8938 9.61912 11.0027 10.725 11.419 11.73C11.8353 12.735 12.5402 13.594 13.4447 14.1983C14.3492 14.8027 15.4125 15.1252 16.5003 15.1252C17.959 15.1252 19.358 14.5458 20.3894 13.5143C21.4209 12.4829 22.0003 11.0839 22.0003 9.62522ZM28.5357 12.6502C28.0339 14.9227 26.9082 17.0103 25.2852 18.6782L21.053 22.8761C20.4575 23.473 19.7503 23.9467 18.9718 24.2701C18.1932 24.5936 17.3585 24.7605 16.5155 24.7612C15.6728 24.7615 14.8384 24.5958 14.0598 24.2735C13.2813 23.9513 12.5738 23.4787 11.978 22.883L7.76633 18.7263C6.16464 17.0821 5.04053 15.033 4.51445 12.7987C3.62138 13.1261 2.80481 13.6329 2.11508 14.2878C1.44277 14.927 0.908343 15.697 0.544662 16.5504C0.180981 17.4038 -0.00426192 18.3226 0.000327372 19.2502V24.8533C0.00321707 26.3402 0.486791 27.7862 1.37889 28.9757C2.27099 30.1651 3.52378 31.0343 4.95033 31.4533L8.89658 32.6908C9.55941 32.8971 10.2498 33.0015 10.944 33.0002C11.5737 32.9994 12.2004 32.9134 12.8071 32.7445L20.7546 30.3932C21.4625 30.1992 22.2095 30.1992 22.9175 30.3932L26.1996 31.4932C27.0085 31.6901 27.8515 31.7008 28.6652 31.5245C29.4788 31.3482 30.2418 30.9894 30.8967 30.4753C31.5515 29.9612 32.0811 29.3052 32.4455 28.5567C32.8099 27.8081 32.9996 26.9866 33.0003 26.1541V19.0742C32.9956 17.677 32.566 16.3142 31.7686 15.1668C30.9712 14.0194 29.8437 13.1417 28.5357 12.6502Z" fill="#2A4588"/>
</g>
<defs>
<clipPath id="clip0_57_436">
<rect width="33" height="33" fill="white"/>
</clipPath>
</defs>
</svg>
