<svg width="125" height="125" viewBox="0 0 125 125" fill="none" xmlns="http://www.w3.org/2000/svg">
<circle cx="62.5" cy="62.5" r="62.5" fill="#B6C1DC"/>
<path fill-rule="evenodd" clip-rule="evenodd" d="M107.311 81.6562C104.33 72.3217 96.4287 66.9807 85.5875 66.9807H85.5099C81.0917 66.9398 77.1432 67.83 73.8112 69.5327C83.1089 72.5177 90.0016 79.1408 93.1743 88.5121C98.2091 87.8138 102.586 86.2663 106.457 83.902L107.735 83.0894L107.311 81.6562Z" fill="#2A4588"/>
<path fill-rule="evenodd" clip-rule="evenodd" d="M78.4984 59.9308C80.589 61.0945 82.9533 61.752 85.5095 61.752C93.525 61.752 100.03 55.2431 100.03 47.2275C100.03 39.2528 93.525 32.744 85.5095 32.744C83.921 32.744 82.4102 33.0175 80.977 33.479C83.0676 36.8518 84.2681 40.8371 84.2681 45.0593C84.2681 50.7923 82.1366 55.9822 78.4984 59.9308Z" fill="#2A4588"/>
<path fill-rule="evenodd" clip-rule="evenodd" d="M49.9961 69.4576C46.7417 67.8324 42.9074 66.979 38.5709 66.979H38.4158C27.5745 66.979 19.6733 72.3241 16.7292 81.6545L16.2637 83.0878L17.5418 83.9003C21.2208 86.1503 25.5614 87.657 30.4002 88.4328C33.6138 79.0248 40.6248 72.3608 49.9961 69.4576Z" fill="#2A4588"/>
<path fill-rule="evenodd" clip-rule="evenodd" d="M38.4939 61.7507C41.0501 61.7507 43.4103 61.0933 45.505 59.9295C41.8627 55.981 39.7312 50.791 39.7312 45.058C39.7312 40.84 40.9317 36.8505 43.0264 33.4818C41.5932 33.0163 40.0824 32.7427 38.4939 32.7427C30.4784 32.7427 23.9695 39.2515 23.9695 47.2263C23.9695 55.246 30.4784 61.7507 38.4939 61.7507Z" fill="#2A4588"/>
<path fill-rule="evenodd" clip-rule="evenodd" d="M61.861 71.5887C61.7956 71.5887 61.7344 71.5887 61.6731 71.5887C47.7326 71.5887 37.5692 78.4405 33.7881 90.4006L33.3307 91.8461L34.6251 92.6383C42.0078 97.1381 50.8278 99.3268 61.5874 99.3268H61.9345C72.7022 99.3268 81.5263 97.1381 88.909 92.6383L90.2075 91.8461L89.7502 90.4006C85.9649 78.4405 75.8056 71.5887 61.861 71.5887Z" fill="#2A4588"/>
<path fill-rule="evenodd" clip-rule="evenodd" d="M62.0006 63.4841C72.1517 63.4841 80.4082 55.2276 80.4082 45.0764C80.4082 34.9294 72.1517 26.6729 62.0006 26.6729C51.8494 26.6729 43.5929 34.9294 43.5929 45.0764C43.5929 55.2276 51.8494 63.4841 62.0006 63.4841Z" fill="#2A4588"/>
</svg>
