<svg width="125" height="125" viewBox="0 0 125 125" fill="none" xmlns="http://www.w3.org/2000/svg">
<circle cx="62.5" cy="62.5" r="62.5" fill="#B6C1DC"/>
<path fill-rule="evenodd" clip-rule="evenodd" d="M61.9999 77.748C53.3159 77.748 46.2519 70.684 46.2519 62C46.2519 53.316 53.3159 46.248 61.9999 46.248C70.6839 46.248 77.7519 53.316 77.7519 62C77.7519 70.684 70.6839 77.748 61.9999 77.748ZM100.872 50.508L89.6719 46.028L91.3919 34.08L71.4879 22.592L62.0039 30.056L52.5159 22.592L32.6119 34.08L34.3319 46.028L23.1279 50.508V73.492L34.3359 77.976L32.6159 89.916L52.5199 101.408L62.0039 93.948L71.4839 101.408L91.3879 89.916L89.6679 77.972L100.872 73.492V50.508Z" fill="#2A4588"/>
</svg>
