<svg width="42" height="42" viewBox="0 0 42 42" fill="none" xmlns="http://www.w3.org/2000/svg">
<ellipse cx="23" cy="20.5" rx="17" ry="18.5" fill="white"/>
<path d="M21.0088 0.5C16.9543 0.5 12.9908 1.7023 9.61961 3.95487C6.2484 6.20744 3.62086 9.4091 2.06927 13.155C0.517671 16.9009 0.111703 21.0227 0.9027 24.9994C1.6937 28.976 3.64613 32.6287 6.51311 35.4957C9.38009 38.3627 13.0328 40.3151 17.0094 41.1061C20.9861 41.8971 25.1079 41.4911 28.8538 39.9395C32.5997 38.3879 35.8014 35.7604 38.0539 32.3892C40.3065 29.018 41.5088 25.0545 41.5088 21C41.509 18.3078 40.9789 15.642 39.9488 13.1547C38.9186 10.6675 37.4086 8.40746 35.505 6.50381C33.6013 4.60017 31.3413 3.09016 28.8541 2.06001C26.3668 1.02987 23.701 0.499777 21.0088 0.5ZM27.5268 31.5626C27.4501 31.7539 27.3333 31.9266 27.1844 32.0691C27.0354 32.2116 26.8578 32.3207 26.6632 32.3889C26.4687 32.4571 26.2619 32.483 26.0565 32.4648C25.8512 32.4465 25.6521 32.3846 25.4727 32.2831L19.9076 27.9589L16.3359 31.2541C16.253 31.3153 16.156 31.3547 16.0539 31.3687C15.9518 31.3826 15.8479 31.3707 15.7516 31.3339L16.4363 25.2076L16.4582 25.225L16.4722 25.104C16.4722 25.104 26.4865 15.9866 26.8944 15.5982C27.3074 15.2107 27.1712 15.1267 27.1712 15.1267C27.1947 14.6541 26.4301 15.1267 26.4301 15.1267L13.1614 23.663L7.63564 21.7811C7.63564 21.7811 6.78694 21.4766 6.70699 20.8073C6.62294 20.1431 7.6633 19.7823 7.6633 19.7823L29.6332 11.0544C29.6332 11.0544 31.4392 10.2497 31.4392 11.5823L27.5268 31.5626Z" fill="#5A9CFF"/>
</svg>
