<svg width="42" height="43" viewBox="0 0 42 43" fill="none" xmlns="http://www.w3.org/2000/svg">
<path d="M20.8871 42.5214C32.4227 42.5214 41.7741 33.0586 41.7741 21.3857C41.7741 9.71278 32.4227 0.25 20.8871 0.25C9.35145 0.25 0 9.71278 0 21.3857C0 33.0586 9.35145 42.5214 20.8871 42.5214Z" fill="#61B15A"/>
<path d="M20.9588 9.61458C17.8802 9.626 14.9316 10.8712 12.7587 13.0776C10.5858 15.2839 9.36575 18.2715 9.36572 21.3861C9.3658 23.7372 10.0618 26.0344 11.364 27.9817L9.53794 33.3879L14.6452 31.2463C16.5358 32.4937 18.7442 33.1579 21.0012 33.1579C22.5293 33.158 24.0424 32.8535 25.4541 32.2619C26.8658 31.6703 28.1486 30.8032 29.2291 29.7101C30.3096 28.617 31.1667 27.3192 31.7514 25.891C32.3361 24.4628 32.6371 22.932 32.6371 21.3861C32.637 18.2641 31.4111 15.2699 29.229 13.0623C27.0468 10.8547 24.0872 9.61454 21.0012 9.61458C20.9871 9.61456 20.9729 9.61456 20.9588 9.61458Z" stroke="white" stroke-width="1.5" stroke-linecap="round" stroke-linejoin="round"/>
<path d="M17.9658 20.4532C17.9658 20.4532 19.5882 23.5358 22.5805 24.4129C23.2665 23.835 23.4204 22.8208 24.1369 22.8442C25.3872 22.8849 26.5705 23.5215 27.2994 24.304C28.1254 25.1908 27.367 27.2345 25.1393 27.2345C22.9117 27.2345 17.783 25.2515 16.077 21.8123C14.371 18.373 15.3377 16.4186 16.2884 15.9152C17.2391 15.4119 17.841 15.5217 18.123 16.0731C18.6729 17.1482 18.9499 17.8637 19.3176 19.1095C19.4984 19.7218 17.9658 20.4532 17.9658 20.4532Z" fill="white"/>
</svg>
