<svg width="188" height="220" viewBox="0 0 188 220" fill="none" xmlns="http://www.w3.org/2000/svg">
<path d="M78.2 16.4C110.6 16.4 134.8 31.8 144 50C148.6 59.2 151.2 63 149.6 65L141.4 77.4L140.2 76C142.6 67.2 145.2 59.8 144.2 57C136.2 35.2 113.2 18.4 78.2 18.4C38.4 18.4 12.4 48.6 12.2 90C12 132 38.2 162.2 78 162.2C120 162.2 142 140 147.6 111.2H150C144 143 118.8 164.2 78 164.2C36.4 164.2 4.2 131 4.2 90C4.2 48.8 37 16.4 78.2 16.4Z" fill="#2A4588"/>
<path fill-rule="evenodd" clip-rule="evenodd" d="M146.171 70H145L109 115.4V81.8C109 77 111.6 72.4 117 72V70H95V72C100.6 72.4 103 76.8 103 82V198C103 203.4 100.6 207.4 95 208V210H117V208C111.4 207.4 109 203.4 109 198V118L116 109.2C133.979 123.877 141.23 146.127 148.018 166.958C156.03 191.545 163.398 214.154 187 220L187.6 218.2C167.982 209.654 162.276 190.78 156.01 170.051C149.371 148.091 142.103 124.05 117 108L138.182 81.2432L146.171 70Z" fill="#2A4588"/>
</svg>
